<?xml version="1.0" encoding="utf-8"?>
<!-- Generator: Adobe Illustrator 17.1.0, SVG Export Plug-In . SVG Version: 6.00 Build 0)  -->
<!DOCTYPE svg PUBLIC "-//W3C//DTD SVG 1.1//EN" "http://www.w3.org/Graphics/SVG/1.1/DTD/svg11.dtd">
<svg version="1.1" id="Layer_1" xmlns="http://www.w3.org/2000/svg" xmlns:xlink="http://www.w3.org/1999/xlink" x="0px" y="0px"
	 viewBox="0 0 841.9 595.3" enable-background="new 0 0 841.9 595.3" xml:space="preserve">
<g>
	<polyline fill="#FFFFFF" points="348.3,146.8 493.5,258.8 348.3,375 	"/>
	<path fill="#3D5976" d="M348.3,385.8c-3.2,0-6.3-1.4-8.5-4.1c-3.7-4.7-3-11.5,1.7-15.2L476,259L341.7,155.4
		c-4.7-3.7-5.6-10.4-2-15.2c3.7-4.7,10.4-5.6,15.2-2l145.2,112c2.6,2,4.2,5.2,4.2,8.5c0,3.3-1.5,6.5-4.1,8.5L355.1,383.5
		C353.1,385.1,350.7,385.8,348.3,385.8z"/>
</g>
</svg>
