<?xml version="1.0" encoding="utf-8"?>
<!-- Generator: Adobe Illustrator 17.1.0, SVG Export Plug-In . SVG Version: 6.00 Build 0)  -->
<!DOCTYPE svg PUBLIC "-//W3C//DTD SVG 1.1//EN" "http://www.w3.org/Graphics/SVG/1.1/DTD/svg11.dtd">
<svg version="1.1" id="Layer_1" xmlns="http://www.w3.org/2000/svg" xmlns:xlink="http://www.w3.org/1999/xlink" x="0px" y="0px"
	 viewBox="0 0 841.9 595.3" enable-background="new 0 0 841.9 595.3" xml:space="preserve">
<g>
	<path fill="#D15840" d="M706.9,151.9c-12.9,27.3-69.7,158.5-77.4,170.7c-0.9,1.4-1.7,2.9-2.6,4.2c-7.6,12.9-15.5,22.8-43,22.8
		H321.4c5.5,16.7,17,37.3,40.8,37.3h227.2c6.7,0,12.1,5.5,12.1,12.2s-5.4,12.1-12.1,12.1H362.2c-33.7,0-58.3-26.4-67.5-66.8
		c-5.1-22.3-66.6-228.1-71-244.2C219,90,208.1,82.6,197.4,82.6h-56c-6.7,0-12.1-5.5-12.1-12.2c0-6.7,5.5-12.1,12.1-12.1h56
		c20.8,0,40.5,1.1,49.1,20.9c0.2,0.5,0.4,1.1,0.5,1.6c2.4,8.9,53.4,189.6,67.9,244.5h268.9c15.8,0,17.3-2.7,22-10.8
		c1-1.6,1.9-3.3,3-5c7.2-11.3,63.6-141.8,75.7-167.2c5-13.1,4.1-20.2,2.7-22.3c-0.9-1.3-3.8-2.1-7.8-2.1c-26.4,0.4-360.4,0-372,0
		c-6.7,0-12.1-5.5-12.1-12.2s5.5-12.1,12.1-12.1l0,0c2.9,0,345.4,0.4,371.8,0c16,0,24,6.9,28,12.7
		C714.6,116.9,714.4,132.3,706.9,151.9z M355.8,423.3c31.3,0,56.8,25.5,56.8,56.8s-25.5,56.8-56.8,56.8c-31.3,0-56.8-25.5-56.8-56.8
		C298.9,448.8,324.4,423.3,355.8,423.3z M355.7,513.6c18.5,0,33.5-15,33.5-33.5c0-18.5-15-33.5-33.5-33.5c-18.5,0-33.5,15-33.5,33.5
		C322.3,498.6,337.3,513.6,355.7,513.6z M586.8,423.3c31.3,0,56.8,25.5,56.8,56.8s-25.5,56.8-56.8,56.8c-31.3,0-56.8-25.5-56.8-56.8
		C530.1,448.8,555.5,423.3,586.8,423.3z M586.8,513.6c18.5,0,33.5-15,33.5-33.5c0-18.5-15-33.5-33.5-33.5c-18.5,0-33.5,15-33.5,33.5
		C553.5,498.6,568.5,513.6,586.8,513.6z"/>
</g>
</svg>
