<?xml version="1.0" encoding="utf-8"?>
<!-- Generator: Adobe Illustrator 17.1.0, SVG Export Plug-In . SVG Version: 6.00 Build 0)  -->
<!DOCTYPE svg PUBLIC "-//W3C//DTD SVG 1.1//EN" "http://www.w3.org/Graphics/SVG/1.1/DTD/svg11.dtd">
<svg version="1.1" id="Layer_1" xmlns="http://www.w3.org/2000/svg" xmlns:xlink="http://www.w3.org/1999/xlink" x="0px" y="0px"
	 viewBox="0 0 496 496" enable-background="new 0 0 496 496" xml:space="preserve">
<path fill="#CF573E" d="M416.8,0c-23.2,0-45.1,10.1-60.2,27.7h0L328,61v39.6l-40,40l-16-16l-40,40l-8-8L172.7,208l16,16L80.6,332.1
	l-8,40L0,444.7v3.3c0,26.5,21.5,48,48,48h3.3l72.6-72.6l40-8L272,307.3l16,16l51.3-51.3l-8-8l40-40l-16-16l40-40H435l33.4-28.6
	c17.6-15.1,27.7-37,27.7-60.2C496,35.5,460.5,0,416.8,0z M380.7,160L368,172.7L323.3,128l12.7-12.7L380.7,160z M219.3,232l28.7-28.7
	l44.7,44.7L264,276.7L219.3,232z M267.3,200l28.7-28.7l28.7,28.7L296,228.7L267.3,200z M272,147.3l12.7,12.7L256,188.7L243.3,176
	L272,147.3z M224,179.3l12.7,12.7L208,220.7L195.3,208L224,179.3z M88.7,373.4l4.2-21.1l50.9,50.9l-21.1,4.2L88.7,373.4z
	 M44.8,479.8c-15.1-1.5-27.2-13.6-28.7-28.7L80,387.3l28.7,28.7L44.8,479.8z M160,396.7L99.3,336L200,235.3l60.7,60.7L160,396.7z
	 M288,300.7L275.3,288l28.7-28.7l12.7,12.7L288,300.7z M320,252.7L307.3,240l28.7-28.7l12.7,12.7L320,252.7z M299.3,152l12.7-12.7
	l44.7,44.7L344,196.7L299.3,152z M457.9,127.2L429,152h-33.7L344,100.7V67l24.8-28.9h0c12-14,29.5-22.1,48-22.1
	c34.9,0,63.2,28.4,63.2,63.2C480,97.7,472,115.2,457.9,127.2z"/>
<path fill="#CF573E" d="M416,32c-26.5,0-48,21.5-48,48s21.5,48,48,48s48-21.5,48-48S442.5,32,416,32z M416,112
	c-17.6,0-32-14.4-32-32s14.4-32,32-32s32,14.4,32,32S433.6,112,416,112z"/>
</svg>
