<?xml version="1.0" encoding="utf-8"?>
<!-- Generator: Adobe Illustrator 17.1.0, SVG Export Plug-In . SVG Version: 6.00 Build 0)  -->
<!DOCTYPE svg PUBLIC "-//W3C//DTD SVG 1.1//EN" "http://www.w3.org/Graphics/SVG/1.1/DTD/svg11.dtd">
<svg version="1.1" id="Layer_2" xmlns="http://www.w3.org/2000/svg" xmlns:xlink="http://www.w3.org/1999/xlink" x="0px" y="0px"
	 viewBox="0 0 512 512" enable-background="new 0 0 512 512" xml:space="preserve">
<path fill="#D1573F" d="M230,220.5c0-3.9,3.1-7,7-7h8c3.9,0,7,3.1,7,7s-3.1,7-7,7h-8C233.1,227.5,230,224.4,230,220.5L230,220.5z
	 M498,235.3v-7.8h-19v57h19V267c0-3.9,3.1-7,7-7s7,3.1,7,7v24.5c0,3.9-3.1,7-7,7h-26v36c0,12.7-10.3,23-23,23h-32
	c-3.1,0-6.2-0.6-9-1.8V366c0,12.7-10.3,23-23,23h-40c-12.7,0-23-10.3-23-23v-67.5H183V366c0,12.7-10.3,23-23,23h-40
	c-12.7,0-23-10.3-23-23v-10.3c-2.8,1.2-5.9,1.8-9,1.8H56c-12.7,0-23-10.3-23-23v-36H7c-3.9,0-7-3.1-7-7v-71c0-3.9,3.1-7,7-7h26v-36
	c0-12.7,10.3-23,23-23h32c3.1,0,6.2,0.6,9,1.8V146c0-12.7,10.3-23,23-23h40c12.7,0,23,10.3,23,23v67.5h27c3.9,0,7,3.1,7,7
	s-3.1,7-7,7h-27v57h146v-57h-57c-3.9,0-7-3.1-7-7s3.1-7,7-7h57V146c0-12.7,10.3-23,23-23h40c12.7,0,23,10.3,23,23v10.3
	c2.8-1.2,5.9-1.8,9-1.8h32c12.7,0,23,10.3,23,23v36h26c3.9,0,7,3.1,7,7v14.8c0,3.9-3.1,7-7,7S498,239.2,498,235.3z M33,284.5v-57H14
	v57H33z M97,334.5v-157c0-5-4-9-9-9H56c-5,0-9,4-9,9v157c0,5,4,9,9,9h32C93,343.5,97,339.5,97,334.5L97,334.5z M169,146c0-5-4-9-9-9
	h-40c-5,0-9,4-9,9v220c0,5,4,9,9,9h40c5,0,9-4,9-9L169,146z M401,146c0-5-4-9-9-9h-40c-5,0-9,4-9,9v220c0,5,4,9,9,9h40c5,0,9-4,9-9
	L401,146z M465,177.5c0-5-4-9-9-9h-32c-5,0-9,4-9,9v157c0,5,4,9,9,9h32c5,0,9-4,9-9V177.5z"/>
</svg>
