<?xml version="1.0" encoding="utf-8"?>
<!-- Generator: Adobe Illustrator 17.1.0, SVG Export Plug-In . SVG Version: 6.00 Build 0)  -->
<!DOCTYPE svg PUBLIC "-//W3C//DTD SVG 1.1//EN" "http://www.w3.org/Graphics/SVG/1.1/DTD/svg11.dtd">
<svg version="1.1" id="Layer_1" xmlns="http://www.w3.org/2000/svg" xmlns:xlink="http://www.w3.org/1999/xlink" x="0px" y="0px"
	 viewBox="0 0 841.9 595.3" enable-background="new 0 0 841.9 595.3" xml:space="preserve">
<g>
	<path fill="none" stroke="#D15840" stroke-width="9" stroke-miterlimit="10" d="M567.2,287.9c-0.6-11.5-2.6-22.7-5.8-33.4
		l17.4-19.2c-5.7-14.8-13.5-28.7-22.9-41.1l-24.9,5.3c-8-9.1-17.1-17.2-27.1-24.1l1-26.2c-12.9-7.4-27-13.2-41.8-17l-15.4,19.8
		c-8.7-1.6-17.7-2.5-26.8-2.5c-5.1,0-10.1,0.3-15.1,0.8l-16-20.6c-14.1,2.6-27.5,7-40.1,12.8l0.9,24.9c-14.2,7.8-27,17.8-37.8,29.7
		l-25.1-5.4c-8.1,10.3-15,21.6-20.6,33.7l16.8,18.6c-6,15.9-9.4,33-9.6,51l-22.4,11.8c0.8,13.1,3.1,25.8,6.7,38l25.1,3.5
		c6.2,16.3,15.2,31.2,26.5,44.2l-9.4,23.2c9.4,9.4,19.8,17.7,31.2,24.8l21.8-13.7c13.8,7.1,28.9,12.1,44.9,14.5l7.6,23.7
		c4.8,0.4,9.6,0.6,14.5,0.6c9.6,0,19-0.8,28.1-2.3l8-24.8c13.5-3.4,26.2-8.7,37.9-15.5l21.3,13.4c12.6-8.6,24-18.9,33.8-30.5
		l-9.8-24.2c6.9-9.6,12.7-20.1,17.1-31.3l25.3-3.5c4.6-14.8,7.2-30.4,7.6-46.6L567.2,287.9z"/>
</g>
<circle fill="none" stroke="#D15840" stroke-width="8" stroke-miterlimit="10" cx="422.7" cy="297.9" r="120.7"/>
<circle fill="none" stroke="#D15840" stroke-width="8" stroke-miterlimit="10" cx="423.2" cy="298.6" r="83.8"/>
<circle fill="none" stroke="#D15840" stroke-width="6" stroke-miterlimit="10" cx="422.7" cy="196.3" r="10.2"/>
<circle fill="none" stroke="#D15840" stroke-width="6" stroke-miterlimit="10" cx="496.8" cy="227.7" r="10.2"/>
<circle fill="none" stroke="#D15840" stroke-width="6" stroke-miterlimit="10" cx="347.8" cy="227.7" r="10.2"/>
<circle fill="none" stroke="#D15840" stroke-width="6" stroke-miterlimit="10" cx="524.8" cy="296.2" r="10.2"/>
<circle fill="none" stroke="#D15840" stroke-width="6" stroke-miterlimit="10" cx="496.8" cy="368.3" r="10.2"/>
<circle fill="none" stroke="#D15840" stroke-width="6" stroke-miterlimit="10" cx="423.2" cy="400.7" r="10.2"/>
<circle fill="none" stroke="#D15840" stroke-width="6" stroke-miterlimit="10" cx="344.4" cy="365.7" r="10.2"/>
<circle fill="none" stroke="#D15840" stroke-width="6" stroke-miterlimit="10" cx="321" cy="296.2" r="10.2"/>
</svg>
