<?xml version="1.0" encoding="utf-8"?>
<!-- Generator: Adobe Illustrator 17.1.0, SVG Export Plug-In . SVG Version: 6.00 Build 0)  -->
<!DOCTYPE svg PUBLIC "-//W3C//DTD SVG 1.1//EN" "http://www.w3.org/Graphics/SVG/1.1/DTD/svg11.dtd">
<svg version="1.1" id="Capa_1" xmlns="http://www.w3.org/2000/svg" xmlns:xlink="http://www.w3.org/1999/xlink" x="0px" y="0px"
	 viewBox="0 0 841.9 595.3" enable-background="new 0 0 841.9 595.3" xml:space="preserve">
<g>
	<g>
		<path fill="#CF573E" d="M718.5,260.6c-21-172.8-200-300.1-384.9-249.3c-56.2,15.4-109.2,54.3-149.3,109.3
			c-38.8,53.3-61,117.4-61,175.6l0,83.5c0,20.5,12,39.2,30.7,47.6c0.2,0.1,0.4,0.2,0.5,0.2l385.2,159.9
			c51.4,21.3,110.9-2.9,132.1-56.3c2-5.1,4.1-10.7,6.1-16.5l15.4,7.7c2.5,1.2,5.1,1.8,7.8,1.8c3.2,0,6.4-0.9,9.2-2.6
			c5.1-3.2,8.3-8.8,8.3-14.8V262.7C718.6,262.4,718.5,260.9,718.5,260.6z M639.4,518.4c-13.9,34.9-52.7,50.9-86.3,37L168.2,395.5
			c-6.1-2.9-10-9-10-15.8l0-83.5c0-108.8,84.5-223.9,184.6-251.3C496.2,2.8,649.1,99.7,680,242.5l-216.6-27.1
			c-31.2-3.9-58.8,20.4-58.8,51.9v78.5c0,19.9,11.1,37.9,28.9,46.8L646.4,499C644,506,641.6,512.7,639.4,518.4z M474.4,252V374
			l-25.2-12.6c-5.9-3-9.6-9-9.6-15.6v-78.5c0-10.6,9.3-18.6,19.6-17.3L474.4,252z M683.7,478.7l-174.4-87.2V256.3l174.4,21.8V478.7z
			"/>
	</g>
</g>
<g>
	<g>
		<path fill="#CF573E" d="M262.8,245.3c-38.5,0-69.8,31.3-69.8,69.8s31.3,69.8,69.8,69.8s69.8-31.3,69.8-69.8
			S301.3,245.3,262.8,245.3z M262.8,349.9c-19.2,0-34.9-15.6-34.9-34.9s15.6-34.9,34.9-34.9s34.9,15.6,34.9,34.9
			S282.1,349.9,262.8,349.9z"/>
	</g>
</g>
</svg>
