<?xml version="1.0" encoding="utf-8"?>
<!-- Generator: Adobe Illustrator 17.1.0, SVG Export Plug-In . SVG Version: 6.00 Build 0)  -->
<!DOCTYPE svg PUBLIC "-//W3C//DTD SVG 1.1//EN" "http://www.w3.org/Graphics/SVG/1.1/DTD/svg11.dtd">
<svg version="1.1" id="Capa_1" xmlns="http://www.w3.org/2000/svg" xmlns:xlink="http://www.w3.org/1999/xlink" x="0px" y="0px"
	 viewBox="0 0 841.9 595.3" enable-background="new 0 0 841.9 595.3" xml:space="preserve">
<g>
	<path fill="#FFFFFF" d="M422.3,177.4c-30.2,0-54.7,24.6-54.7,54.7s24.6,54.7,54.7,54.7c30.2,0,54.7-24.6,54.7-54.7
		S452.5,177.4,422.3,177.4z M422.3,271.2c-21.6,0-39.1-17.5-39.1-39.1s17.5-39.1,39.1-39.1s39.1,17.5,39.1,39.1
		S443.9,271.2,422.3,271.2z"/>
	<path fill="#FFFFFF" d="M527,127.5c-28.3-28.3-66-43.9-106-43.9c-40.1,0-77.7,15.6-106,43.9c-52.4,52.4-58.9,151-14.1,210.8
		L421,511.8l120-173.3C585.9,278.5,579.4,179.9,527,127.5z M528.3,329.3L421,484.3L313.5,329.1c-40.7-54.2-34.8-143.3,12.5-190.6
		c25.4-25.4,59.1-39.3,95-39.3s69.6,14,95,39.3C563.3,185.8,569.1,274.9,528.3,329.3z"/>
</g>
</svg>
