<?xml version="1.0" encoding="utf-8"?>
<!-- Generator: Adobe Illustrator 17.1.0, SVG Export Plug-In . SVG Version: 6.00 Build 0)  -->
<!DOCTYPE svg PUBLIC "-//W3C//DTD SVG 1.1//EN" "http://www.w3.org/Graphics/SVG/1.1/DTD/svg11.dtd">
<svg version="1.1" id="Capa_1" xmlns="http://www.w3.org/2000/svg" xmlns:xlink="http://www.w3.org/1999/xlink" x="0px" y="0px"
	 viewBox="0 0 841.9 595.3" enable-background="new 0 0 841.9 595.3" xml:space="preserve">
<g>
	<g>
		<path fill="#FFFFFF" d="M666.3,70.9H175.6c-28.8,0-52.3,23.5-52.3,52.3V472c0,28.7,23.4,52.3,52.3,52.3h490.6
			c28.7,0,52.3-23.4,52.3-52.3V123.2C718.6,94.5,695.2,70.9,666.3,70.9z M659,105.8l-237,237l-239-237H659z M158.2,464.8V130.3
			l168,166.5L158.2,464.8z M182.8,489.5l168.1-168.1l58.9,58.4c6.8,6.8,17.8,6.7,24.6-0.1l57.4-57.4L659,489.5H182.8z M683.7,464.8
			L516.5,297.6l167.2-167.2V464.8z"/>
	</g>
</g>
</svg>
