<?xml version="1.0" encoding="utf-8"?>
<!-- Generator: Adobe Illustrator 17.1.0, SVG Export Plug-In . SVG Version: 6.00 Build 0)  -->
<!DOCTYPE svg PUBLIC "-//W3C//DTD SVG 1.1//EN" "http://www.w3.org/Graphics/SVG/1.1/DTD/svg11.dtd">
<svg version="1.1" id="Capa_1" xmlns="http://www.w3.org/2000/svg" xmlns:xlink="http://www.w3.org/1999/xlink" x="0px" y="0px"
	 viewBox="0 0 841.9 595.3" enable-background="new 0 0 841.9 595.3" xml:space="preserve">
<g>
	<path fill="#FFFFFF" d="M669.8,440.2l-106.3-70.9c-13.5-8.9-31.6-6-41.6,6.7l-31,39.8c-4,5.2-11.2,6.8-17,3.6l-5.9-3.2
		c-19.5-10.6-43.8-23.9-92.8-72.9s-62.2-73.3-72.9-92.8l-3.2-5.9c-3.2-5.8-1.7-13,3.5-17l39.8-31c12.7-10,15.7-28.1,6.8-41.6
		L278.3,48.8c-9.1-13.7-27.5-17.9-41.6-9.4l-44.5,26.7c-14,8.2-24.2,21.5-28.6,37.1c-16,58.3-4,159,144.3,307.3
		c118,118,205.8,149.7,266.2,149.7c13.9,0.1,27.7-1.7,41.1-5.4c15.6-4.4,28.9-14.6,37.1-28.6l26.7-44.4
		C687.7,467.7,683.6,449.4,669.8,440.2z M664.1,472.9l-26.7,44.5c-5.9,10.1-15.5,17.5-26.7,20.7c-53.9,14.8-147.9,2.5-290.3-139.8
		S165.8,161.7,180.6,107.9c3.2-11.3,10.6-20.8,20.7-26.7l44.5-26.7c6.1-3.7,14.1-1.9,18.1,4.1l38.5,57.8l32.3,48.5
		c3.9,5.9,2.6,13.7-2.9,18l-39.8,31c-12.1,9.3-15.6,26-8.1,39.3l3.2,5.7c11.2,20.5,25.1,46,75.9,96.8c50.8,50.8,76.3,64.7,96.8,75.9
		l5.8,3.2c13.3,7.5,30.1,4,39.3-8.1l31-39.8c4.3-5.5,12.2-6.8,18-2.9L660,454.8C666,458.8,667.8,466.7,664.1,472.9z"/>
</g>
</svg>
