<?xml version="1.0" encoding="utf-8"?>
<!-- Generator: Adobe Illustrator 17.1.0, SVG Export Plug-In . SVG Version: 6.00 Build 0)  -->
<!DOCTYPE svg PUBLIC "-//W3C//DTD SVG 1.1//EN" "http://www.w3.org/Graphics/SVG/1.1/DTD/svg11.dtd">
<svg version="1.1" id="Capa_1" xmlns="http://www.w3.org/2000/svg" xmlns:xlink="http://www.w3.org/1999/xlink" x="0px" y="0px"
	 viewBox="0 0 512 512" enable-background="new 0 0 512 512" xml:space="preserve">
<path fill="#3D5976" d="M288.1,128.5h-80.3c-8.3,0-15,6.7-15,15v113.5h-17.1c-8.3,0-15,6.7-15,15s6.7,15,15,15h17.1v34.3h-17.1
	c-8.3,0-15,6.7-15,15s6.7,15,15,15h17.1v33.2c0,8.3,6.7,15,15,15s15-6.7,15-15v-33.2h65.3c8.3,0,15-6.7,15-15s-6.7-15-15-15h-65.3
	v-34.3h65.3c43.7,0,79.3-35.6,79.3-79.3C367.4,163,330.9,128.5,288.1,128.5L288.1,128.5z M288.1,257.1h-65.3v-98.5h65.3
	c27,0,49.3,21.8,49.3,49.3C337.4,235,315.3,257.1,288.1,257.1z"/>
</svg>
