<?xml version="1.0" encoding="utf-8"?>
<!-- Generator: Adobe Illustrator 17.1.0, SVG Export Plug-In . SVG Version: 6.00 Build 0)  -->
<!DOCTYPE svg PUBLIC "-//W3C//DTD SVG 1.1//EN" "http://www.w3.org/Graphics/SVG/1.1/DTD/svg11.dtd">
<svg version="1.1" id="Layer_1" xmlns="http://www.w3.org/2000/svg" xmlns:xlink="http://www.w3.org/1999/xlink" x="0px" y="0px"
	 viewBox="0 0 512 512" enable-background="new 0 0 512 512" xml:space="preserve">
<path fill="#CF573E" stroke="#CF573E" stroke-width="4" stroke-miterlimit="10" d="M106.6,142.1c-4.1,0-7.5,3.4-7.5,7.5v8.9h-8.9
	c-4.1,0-7.5,3.4-7.5,7.5c0,4.1,3.4,7.5,7.5,7.5h8.9v8.9c0,4.1,3.4,7.5,7.5,7.5s7.5-3.4,7.5-7.5v-8.9h8.9c4.1,0,7.5-3.4,7.5-7.5
	c0-4.1-3.4-7.5-7.5-7.5h-8.9v-8.9C114.1,145.5,110.8,142.1,106.6,142.1z"/>
<path fill="#CF573E" stroke="#CF573E" stroke-width="4" stroke-miterlimit="10" d="M421.8,173.6c4.1,0,7.5-3.4,7.5-7.5
	c0-4.1-3.4-7.5-7.5-7.5H389c-4.1,0-7.5,3.4-7.5,7.5c0,4.1,3.4,7.5,7.5,7.5H421.8z"/>
<path fill="#CF573E" stroke="#CF573E" stroke-width="4" stroke-miterlimit="10" d="M304.2,169.3h-66.9c-2.8,0-5.3,1.5-6.6,3.9
	l-53.3,98.5c-2.7,5,0.9,11.1,6.6,11.1c0.2,0,49.2-0.1,49.3-0.1l-32,77.6c-3.1,7.5,6.5,13.9,12.2,8.1l119.6-120
	c4.7-4.7,1.4-12.8-5.3-12.8h-53.6l36-54.7C313.7,175.9,310.2,169.3,304.2,169.3z M254.2,239c-3.3,5,0.3,11.6,6.3,11.6h49.4
	l-80.3,80.6l21.9-53.2c1-2.3,0.7-5-0.7-7c-2.4-3.6-6.1-3.3-6.2-3.3l-47.9,0.1l45.2-83.4h48.5L254.2,239z"/>
<path fill="#CF573E" stroke="#CF573E" stroke-width="4" stroke-miterlimit="10" d="M99.1,85.9c0,4.1,3.4,7.5,7.5,7.5h298.8
	c4.1,0,7.5-3.4,7.5-7.5c0-4.1-3.4-7.5-7.5-7.5H106.6C102.5,78.4,99.1,81.8,99.1,85.9z"/>
<path fill="#CF573E" stroke="#CF573E" stroke-width="4" stroke-miterlimit="10" d="M489.5,46.4h-54.2V29.5c0-7.5-6.1-13.6-13.6-13.6
	h-8.8V7.5c0-4.1-3.4-7.5-7.5-7.5c-4.1,0-7.5,3.4-7.5,7.5V16h-8.8c-7.5,0-13.6,6.1-13.6,13.6v16.9h-42.2c-4.1,0-7.5,3.4-7.5,7.5
	s3.4,7.5,7.5,7.5h156.2c4.1,0,7.5,3.4,7.5,7.5v34c0,4.1-3.4,7.5-7.5,7.5c-26.2,0-440.2,0-467,0c-4.1,0-7.5-3.4-7.5-7.5v-34
	c0-4.1,3.4-7.5,7.5-7.5h285.6c4.1,0,7.5-3.4,7.5-7.5s-3.4-7.5-7.5-7.5H136.5V29.5c0-7.5-6.1-13.6-13.6-13.6h-8.8V7.5
	c0-4.1-3.4-7.5-7.5-7.5s-7.5,3.4-7.5,7.5V16h-8.8c-7.5,0-13.6,6.1-13.6,13.6v16.9H22.5C10.1,46.4,0,56.5,0,68.9v34
	c0,12.4,10.1,22.5,22.5,22.5h14.9v186.4c0,4.1,3.4,7.5,7.5,7.5s7.5-3.4,7.5-7.5V125.4h407.3v246c0,23.8-19.3,43.1-43.1,43.1h-321
	c-23.8,0-43.1-19.3-43.1-43.1v-34.3c0-4.1-3.4-7.5-7.5-7.5c-4.1,0-7.5,3.4-7.5,7.5v34.3c0,32.1,26.1,58.1,58.1,58.1h321
	c32.1,0,58.1-26.1,58.1-58.1v-246h14.9c12.4,0,22.5-10.1,22.5-22.5v-34C512,56.5,501.9,46.4,489.5,46.4z M390.5,46.4V31h29.7v15.5
	H390.5z M91.7,31h29.7v15.5H91.7V31z"/>
<path fill="#CF573E" stroke="#CF573E" stroke-width="4" stroke-miterlimit="10" d="M90.1,269.9c0,4.1,3.4,7.5,7.5,7.5h55.1
	c4.1,0,7.5-3.4,7.5-7.5c0-4.1-3.4-7.5-7.5-7.5H97.6C93.4,262.4,90.1,265.8,90.1,269.9z"/>
<path fill="#CF573E" stroke="#CF573E" stroke-width="4" stroke-miterlimit="10" d="M341.8,269.9c0,4.1,3.4,7.5,7.5,7.5h55.1
	c4.1,0,7.5-3.4,7.5-7.5c0-4.1-3.4-7.5-7.5-7.5h-55.1C345.2,262.4,341.8,265.8,341.8,269.9z"/>
</svg>
