<?xml version="1.0" encoding="utf-8"?>
<!-- Generator: Adobe Illustrator 17.1.0, SVG Export Plug-In . SVG Version: 6.00 Build 0)  -->
<!DOCTYPE svg PUBLIC "-//W3C//DTD SVG 1.1//EN" "http://www.w3.org/Graphics/SVG/1.1/DTD/svg11.dtd">
<svg version="1.1" id="Capa_1" xmlns="http://www.w3.org/2000/svg" xmlns:xlink="http://www.w3.org/1999/xlink" x="0px" y="0px"
	 viewBox="0 0 841.9 595.3" enable-background="new 0 0 841.9 595.3" xml:space="preserve">
<g>
	<path fill="#CF573E" d="M603.6,380.5c1.7-2.9,1.8-6.5,0.1-9.4l-84.5-153.2l26-47.9c1.6-2.9,1.5-6.5-0.2-9.4
		c-1.7-2.9-4.8-4.6-8.2-4.6h-50.7c-5.2,0-9.5,4.3-9.5,9.5c0,5.2,4.3,9.5,9.5,9.5H521L503,208H343.2v-92.5h5.3c5.2,0,9.5-4.3,9.5-9.5
		c0-5.2-4.3-9.5-9.5-9.5h-50.7c-20.3,0-36.7,16.5-36.7,36.7c0,5.2,4.3,9.5,9.5,9.5c5.2,0,9.5-4.3,9.5-9.5c0-9.8,8-17.7,17.7-17.7
		h26.3v99.6l-86.1,156c-2.5,4.6-0.9,10.4,3.7,12.9c1.5,0.8,3,1.2,4.6,1.2c3.3,0,6.6-1.8,8.3-4.9l78.9-143.1l69.8,126.4
		c6.7,12.1,22.7,21.5,36.5,21.5h155.5C598.8,385.2,601.9,383.4,603.6,380.5z M439.9,366.2c-7,0-16.5-5.6-19.9-11.7L349.8,227h142.9
		L435,333.1c-2.5,4.6-0.8,10.4,3.8,12.9c1.4,0.8,3,1.2,4.5,1.2c3.4,0,6.6-1.8,8.4-5l56.8-104.5l70.9,128.5L439.9,366.2L439.9,366.2z
		"/>
	<path fill="#CF573E" d="M503.3,293.9c-10.6,11.9-18.7,25.6-24,40.5c-1.8,4.9,0.8,10.4,5.8,12.1c1,0.4,2.1,0.5,3.2,0.5
		c3.9,0,7.6-2.4,9-6.3c4.5-12.7,11.3-24.2,20.3-34.3c3.5-3.9,3.1-9.9-0.8-13.4C512.8,289.7,506.8,290,503.3,293.9z"/>
	<path fill="#CF573E" d="M595.4,252.5c-6.7,0-13.4,0.5-20,1.6c-5.2,0.8-8.7,5.7-7.8,10.9c0.8,5.2,5.7,8.7,10.9,7.8
		c5.6-0.9,11.3-1.4,16.9-1.4c57.4,0,104.1,46.7,104.1,104.1c0,57.4-46.7,104.1-104.1,104.1c-44,0-83.5-27.9-98.2-69.3
		c-1.8-4.9-7.2-7.5-12.1-5.8c-4.9,1.8-7.5,7.2-5.8,12.1c17.4,49,64,82,116.1,82c67.9,0,123.1-55.2,123.1-123.1
		C718.6,307.8,663.3,252.5,595.4,252.5z"/>
	<path fill="#CF573E" d="M325.1,293.1c-3.9,3.5-4.3,9.5-0.8,13.4c16.9,19.1,26.2,43.6,26.2,69.1c0,57.4-46.7,104.1-104.1,104.1
		c-57.4,0-104.1-46.7-104.1-104.1c0-57.4,46.7-104.1,104.1-104.1c5.6,0,11.3,0.5,16.9,1.4c5.2,0.8,10.1-2.7,10.9-7.8
		c0.8-5.2-2.7-10.1-7.8-10.9c-6.6-1.1-13.3-1.6-20-1.6c-67.9,0-123.1,55.2-123.1,123.1c0,67.9,55.2,123.1,123.1,123.1
		c67.9,0,123.1-55.2,123.1-123.1c0-30.2-11-59.2-31-81.7C335.1,290,329.1,289.7,325.1,293.1z"/>
</g>
</svg>
