<?xml version="1.0" encoding="utf-8"?>
<!-- Generator: Adobe Illustrator 17.1.0, SVG Export Plug-In . SVG Version: 6.00 Build 0)  -->
<!DOCTYPE svg PUBLIC "-//W3C//DTD SVG 1.1//EN" "http://www.w3.org/Graphics/SVG/1.1/DTD/svg11.dtd">
<svg version="1.1" id="Capa_1" xmlns="http://www.w3.org/2000/svg" xmlns:xlink="http://www.w3.org/1999/xlink" x="0px" y="0px"
	 viewBox="0 0 841.9 595.3" enable-background="new 0 0 841.9 595.3" xml:space="preserve">
<g>
	<path fill="#CF573E" d="M683.6,80l-2.1-0.4c0.1-1.6,0.2-3.2,0.2-4.8c0-3-0.2-6-0.6-8.9l1.7-0.3c5.1-1,8.4-5.9,7.4-11
		c-1-5.1-5.9-8.4-11-7.4l-3.3,0.7c-2-4.4-4.6-8.7-7.6-12.6l2.4-2.4c3.7-3.7,3.7-9.6,0-13.3c-3.7-3.7-9.6-3.7-13.3,0l-2.5,2.5
		c-3.6-2.6-7.4-4.8-11.3-6.6l0.7-3.3c1-5.1-2.3-10.1-7.4-11c-5.1-1-10.1,2.3-11,7.4l-0.3,1.7c-2.9-0.4-5.9-0.6-8.9-0.6
		c-1.6,0-3.2,0.1-4.8,0.2l-0.4-2.1c-1-5.1-5.9-8.4-11-7.4c-5.1,1-8.4,5.9-7.4,11l0.5,2.5c-4.3,1.6-8.4,3.7-12.3,6.2l-0.8-1.3
		c-2.9-4.3-8.7-5.5-13.1-2.6c-4.3,2.9-5.5,8.7-2.6,13.1l2.1,3.2l-9.1,9.1l-2-2c-3.7-3.7-9.6-3.7-13.3,0c-3.7,3.7-3.7,9.6,0,13.3l2,2
		l-8.8,8.8l-2-2c-3.7-3.7-9.6-3.7-13.3,0c-3.7,3.7-3.7,9.6,0,13.3l2,2l-8.8,8.8l-2-2c-3.7-3.7-9.6-3.7-13.3,0s-3.7,9.6,0,13.3l2,2
		l-8.8,8.8l-2-2c-3.7-3.7-9.6-3.7-13.3,0c-3.7,3.7-3.7,9.6,0,13.3l2,2l-8.8,8.8l-2-2c-3.7-3.7-9.6-3.7-13.3,0
		c-3.7,3.7-3.7,9.6,0,13.3l2,2l-8.8,8.8l-2-2c-3.7-3.7-9.6-3.7-13.3,0c-3.7,3.7-3.7,9.6,0,13.3l2,2l-8.8,8.8l-2-2
		c-3.7-3.7-9.6-3.7-13.3,0c-3.7,3.7-3.7,9.6,0,13.3l2,2l-8.8,8.8l-2-2c-3.7-3.7-9.6-3.7-13.3,0c-3.7,3.7-3.7,9.6,0,13.3l2,2
		l-8.8,8.8L352,189.7c-10.3-10.3-24-16-38.6-16c-14.6,0-28.3,5.7-38.6,16l-6.5,6.5l-53.7-53.7c-3.7-3.7-9.6-3.7-13.3,0
		c-3.7,3.7-3.7,9.6,0,13.3l53.7,53.7l-84.4,84.4c-20.2,20.2-21.2,52.3-3.2,73.8l-16.5,137.1c-1.1,9,2.9,20.6,9.3,27l53.4,53.4
		c6.7,6.7,15.6,10.1,24.4,10.1s17.7-3.4,24.4-10.1l203.8-203.8c19-19,21-48.7,6.1-70l9.4-9.4l2,2c1.8,1.8,4.3,2.8,6.7,2.8
		c2.4,0,4.8-0.9,6.7-2.8c3.7-3.7,3.7-9.6,0-13.3l-2-2l8.8-8.8l2,2c1.8,1.8,4.3,2.8,6.7,2.8c2.4,0,4.8-0.9,6.7-2.8
		c3.7-3.7,3.7-9.6,0-13.3l-2-2l8.8-8.8l2,2c1.8,1.8,4.3,2.8,6.7,2.8c2.4,0,4.8-0.9,6.7-2.8c3.7-3.7,3.7-9.6,0-13.3l-2-2l8.8-8.8l2,2
		c1.8,1.8,4.3,2.8,6.7,2.8c2.4,0,4.8-0.9,6.7-2.8c3.7-3.7,3.7-9.6,0-13.3l-2-2l8.8-8.8l2,2c1.8,1.8,4.3,2.8,6.7,2.8
		c2.4,0,4.8-0.9,6.7-2.8c3.7-3.7,3.7-9.6,0-13.3l-2-2l8.8-8.8l2,2c1.8,1.8,4.3,2.8,6.7,2.8c2.4,0,4.8-0.9,6.7-2.8
		c3.7-3.7,3.7-9.6,0-13.3l-2-2l8.8-8.8l2,2c1.8,1.8,4.3,2.8,6.7,2.8c2.4,0,4.8-0.9,6.7-2.8c3.7-3.7,3.7-9.6,0-13.3l-2-2l8.8-8.8l2,2
		c1.8,1.8,4.3,2.8,6.7,2.8c2.4,0,4.8-0.9,6.7-2.8c3.7-3.7,3.7-9.6,0-13.3l-2-2l9.1-9.1l3.2,2.1c1.6,1.1,3.4,1.6,5.2,1.6
		c3.1,0,6-1.5,7.9-4.2c2.9-4.3,1.7-10.2-2.6-13.1l-1.3-0.9c2.5-3.9,4.6-8,6.2-12.3l2.5,0.5c0.6,0.1,1.2,0.2,1.8,0.2
		c4.4,0,8.4-3.1,9.2-7.6C692,86,688.7,81,683.6,80z M459.6,297.4l-65.8-65.8L583.5,42c8.8-8.8,20.5-13.6,32.9-13.6
		s24.1,4.8,32.9,13.6c8.8,8.8,13.6,20.5,13.6,32.9c0,12.4-4.8,24.1-13.6,32.9L459.6,297.4z M323.4,497.5L217.7,391.8
		c-2.6-2.6-6.3-3.4-9.7-2.2c-3.4,1.2-5.8,4.2-6.3,7.8l-12.6,105c-0.3,2.9,0.6,5.7,2.7,7.8l39.6,39.6c1.8,1.8,4.3,2.8,6.7,2.8
		c2.4,0,4.8-0.9,6.7-2.8l52.1-52.1l13.3,13.3l-61,61c-6.1,6.1-16.1,6.1-22.2,0l-53.4-53.4c-2.4-2.4-4.4-8.1-4-11.4l15.1-125.8
		c2.3-0.1,4.6-1,6.4-2.7c3.7-3.7,3.7-9.6,0-13.3l-7.2-7.2c-14-14-14-36.7,0-50.6l84.4-84.4l128.5,128.5c1.8,1.8,4.3,2.8,6.7,2.8
		c2.4,0,4.8-0.9,6.7-2.8c3.7-3.7,3.7-9.6,0-13.3L281.5,209.5l6.5-6.5c6.8-6.8,15.8-10.5,25.3-10.5c9.6,0,18.6,3.7,25.3,10.5
		l114.3,114.3c14,14,14,36.7,0,50.6L323.4,497.5z M283.5,484.2L238,529.7L208.3,500l9.7-81.2L283.5,484.2z"/>
	<path fill="#CF573E" d="M300.8,426.9c-3.7-3.7-9.6-3.7-13.3,0c-3.7,3.7-3.7,9.6,0,13.3l26.7,26.7c1.8,1.8,4.3,2.8,6.7,2.8
		s4.8-0.9,6.7-2.8c3.7-3.7,3.7-9.6,0-13.3L300.8,426.9z"/>
	<path fill="#CF573E" d="M324.8,402.9c-3.7-3.7-9.6-3.7-13.3,0c-3.7,3.7-3.7,9.6,0,13.3l26.7,26.7c1.8,1.8,4.3,2.8,6.7,2.8
		c2.4,0,4.8-0.9,6.7-2.8c3.7-3.7,3.7-9.6,0-13.3L324.8,402.9z"/>
	<path fill="#CF573E" d="M348.8,378.9c-3.7-3.7-9.6-3.7-13.3,0c-3.7,3.7-3.7,9.6,0,13.3l26.7,26.7c1.8,1.8,4.3,2.8,6.7,2.8
		c2.4,0,4.8-0.9,6.7-2.8c3.7-3.7,3.7-9.6,0-13.3L348.8,378.9z"/>
</g>
</svg>
