<?xml version="1.0" encoding="utf-8"?>
<!-- Generator: Adobe Illustrator 17.1.0, SVG Export Plug-In . SVG Version: 6.00 Build 0)  -->
<!DOCTYPE svg PUBLIC "-//W3C//DTD SVG 1.1//EN" "http://www.w3.org/Graphics/SVG/1.1/DTD/svg11.dtd">
<svg version="1.1" id="Layer_1" xmlns="http://www.w3.org/2000/svg" xmlns:xlink="http://www.w3.org/1999/xlink" x="0px" y="0px"
	 viewBox="0 0 841.9 595.3" enable-background="new 0 0 841.9 595.3" xml:space="preserve">
<g>
	<path fill="none" stroke="#D15840" stroke-width="6" stroke-miterlimit="10" d="M567.6,304.6l-21.1,0c-0.7-3.9-1.6-7.7-2.6-11.4
		l19-9.1c-1.2-4.1-2.6-8.1-4.2-12l-20.6,4.7c-1.5-3.6-3.2-7.1-5.1-10.6l16.5-13.1c-2.1-3.7-4.4-7.3-6.8-10.8l-19,9.2
		c-2.3-3.2-4.7-6.2-7.3-9.2l13.2-16.5c-2.9-3.1-5.9-6.1-9-9L504.2,230c-2.9-2.6-6-5-9.2-7.3l9.2-19c-3.5-2.4-7.1-4.7-10.8-6.8
		l-13.1,16.5c-3.4-1.9-7-3.6-10.6-5.1l4.7-20.6c-3.9-1.6-7.9-3-12-4.2l-9.1,19c-3.7-1-7.6-1.9-11.4-2.6l0-21.1
		c-4.2-0.6-8.4-1.1-12.7-1.4l-4.7,20.6c-1.9-0.1-3.9-0.1-5.9-0.1s-3.9,0.1-5.9,0.1l-4.7-20.6c-4.3,0.3-8.5,0.8-12.7,1.4l0,21.1
		c-3.9,0.7-7.7,1.6-11.4,2.6l-9.1-19c-4.1,1.2-8.1,2.6-12,4.2l4.7,20.6c-3.6,1.5-7.1,3.2-10.6,5.1l-13.1-16.5
		c-3.7,2.1-7.3,4.4-10.8,6.8l9.2,19c-3.2,2.3-6.2,4.7-9.2,7.3l-16.5-13.2c-3.1,2.9-6.1,5.9-9,9l13.2,16.5c-2.6,2.9-5,6-7.3,9.2
		l-19-9.2c-2.4,3.5-4.7,7.1-6.8,10.8l16.5,13.1c-1.9,3.4-3.6,7-5.1,10.6l-20.6-4.7c-1.6,3.9-3,7.9-4.2,12l19,9.1
		c-1,3.7-1.9,7.6-2.6,11.4l-21.1,0c-0.6,4.2-1.1,8.4-1.4,12.7l20.6,4.7c-0.1,1.9-0.1,3.9-0.1,5.9s0.1,3.9,0.1,5.9l-20.6,4.7
		c0.3,4.3,0.8,8.5,1.4,12.7l21.1,0c0.7,3.9,1.6,7.7,2.6,11.4l-19,9.1c1.2,4.1,2.6,8.1,4.2,12l20.6-4.7c1.5,3.6,3.2,7.1,5.1,10.6
		l-16.5,13.1c2.1,3.7,4.4,7.3,6.8,10.8l19-9.2c2.3,3.2,4.7,6.2,7.3,9.2l-13.2,16.5c2.9,3.1,5.9,6.1,9,9l16.5-13.2
		c2.9,2.6,6,5,9.2,7.3l-9.2,19c3.5,2.4,7.1,4.7,10.8,6.8l13.1-16.5c3.4,1.9,7,3.6,10.6,5.1l-4.7,20.6c3.9,1.6,7.9,3,12,4.2l9.1-19
		c3.7,1,7.6,1.9,11.4,2.6l0,21.1c4.2,0.6,8.4,1.1,12.7,1.4l4.7-20.6c1.9,0.1,3.9,0.1,5.9,0.1s3.9-0.1,5.9-0.1l4.7,20.6
		c4.3-0.3,8.5-0.8,12.7-1.4l0-21.1c3.9-0.7,7.7-1.6,11.4-2.6l9.1,19c4.1-1.2,8.1-2.6,12-4.2l-4.7-20.6c3.6-1.5,7.1-3.2,10.6-5.1
		l13.1,16.5c3.7-2.1,7.3-4.4,10.8-6.8l-9.2-19c3.2-2.3,6.2-4.7,9.2-7.3l16.5,13.2c3.1-2.9,6.1-5.9,9-9l-13.2-16.5
		c2.6-2.9,5-6,7.3-9.2l19,9.2c2.4-3.5,4.7-7.1,6.8-10.8l-16.5-13.1c1.9-3.4,3.6-7,5.1-10.6l20.6,4.7c1.6-3.9,3-7.9,4.2-12l-19-9.1
		c1-3.7,1.9-7.6,2.6-11.4l21.1,0c0.6-4.2,1.1-8.4,1.4-12.7l-20.6-4.7c0.1-1.9,0.1-3.9,0.1-5.9s-0.1-3.9-0.1-5.9l20.6-4.7
		C568.8,313,568.3,308.8,567.6,304.6z"/>
</g>
<circle fill="none" stroke="#D15840" stroke-width="6" stroke-miterlimit="10" cx="418.6" cy="327.8" r="103.5"/>
<circle fill="none" stroke="#D15840" stroke-width="4" stroke-miterlimit="10" cx="419.1" cy="326.7" r="26.2"/>
<circle fill="none" stroke="#D15840" stroke-width="4" stroke-miterlimit="10" cx="419.1" cy="326.7" r="15.8"/>
<circle fill="none" stroke="#D15840" stroke-width="4" stroke-miterlimit="10" cx="419.1" cy="264.4" r="26.2"/>
<circle fill="none" stroke="#D15840" stroke-width="4" stroke-miterlimit="10" cx="482.1" cy="306.7" r="26.2"/>
<circle fill="none" stroke="#D15840" stroke-width="4" stroke-miterlimit="10" cx="355" cy="304.2" r="26.2"/>
<circle fill="none" stroke="#D15840" stroke-width="4" stroke-miterlimit="10" cx="378.6" cy="379.1" r="26.2"/>
<circle fill="none" stroke="#D15840" stroke-width="4" stroke-miterlimit="10" cx="460.7" cy="379.1" r="26.2"/>
</svg>
