<?xml version="1.0" encoding="utf-8"?>
<!-- Generator: Adobe Illustrator 17.1.0, SVG Export Plug-In . SVG Version: 6.00 Build 0)  -->
<!DOCTYPE svg PUBLIC "-//W3C//DTD SVG 1.1//EN" "http://www.w3.org/Graphics/SVG/1.1/DTD/svg11.dtd">
<svg version="1.1" id="Layer_1" xmlns="http://www.w3.org/2000/svg" xmlns:xlink="http://www.w3.org/1999/xlink" x="0px" y="0px"
	 viewBox="0 0 512 512" enable-background="new 0 0 512 512" xml:space="preserve">
<path fill="#CF573E" d="M494.5,351.4c-9.8-12.9-23.2-22.9-38.2-28.6c-0.1-2.8-0.9-5.6-2.2-8.1c-5.5-10.5-15.9-11.2-27.7-11.3
	c-7.1-21.2-18.9-57.2-30.4-92.1c-1.3-3.9-5.5-6.1-9.5-4.8c-3.9,1.3-6.1,5.5-4.8,9.5c10.9,33,22.1,66.9,29.2,88.4
	c-14.9,2.2-29.2,7.6-41.8,16.1c1.7-10.3,1.2-20.5-1.2-30C337.4,163,338.7,170.2,338,161c2.1,0.2,1,0.1,25.5,0.1
	c2.8,8.6,5.8,17.4,8.7,26.3c1.3,3.9,5.5,6.1,9.5,4.8c3.9-1.3,6.1-5.5,4.8-9.5c-2.4-7.3-4.8-14.5-7.1-21.6h9.4
	c5.9,0,10.9-3.6,13.1-8.7h14c7.2,0,13.1-5.9,13.1-13.1v-25.1c0-7.2-5.9-13.1-13.1-13.1h-14c-2.2-5.1-7.2-8.7-13.1-8.7h-35
	l-18.9-42.8c-1.2-2.7-3.9-4.5-6.9-4.5h-19.2l3.9-13.4c1.2-4-1.1-8.1-5.1-9.3c-4-1.2-8.1,1.1-9.3,5.1l-13,44.5
	c-1.2,4,1.1,8.1,5.1,9.3c4,1.2,8.1-1.1,9.3-5.1l4.7-16.1h18.7l14.4,32.4c-6.6,0.7-12.8,3.3-18,7.5h-30c-5.5,0-10.8,2.3-14.5,6.2
	l-19.3,20.3c-2.9,3-2.7,7.8,0.3,10.6c3,2.8,7.7,2.7,10.6-0.3l19.3-20.3c0.9-1,2.3-1.6,3.6-1.6h19.3c-5.4,15,0.2,32.1,14.1,40.8
	c0.1,14.9,0,11,30.5,138.1c4.7,18.6-0.1,38.3-12.5,52.7c-2.1,2.4-5.1,3.8-8.2,3.8c-38,0-41.7,0.9-51.3-3c-3.8-1.5-8.2,0.3-9.7,4.2
	s0.3,8.2,4.2,9.7c13,5.2,19.8,4,56.8,4c-3.7,9.1-6,18.8-6.8,28.8H220.1c3.9-5.4,5.8-11.5,5.8-18.3c0-24.7-11.4-47-32-62.6
	c-24.4-18.5-57.1-25-87.2-21.3c-4.1,0.5-7,4.2-6.5,8.4c0.5,4.1,4.3,7,8.4,6.5c49-6,102.4,19.8,102.4,69.5c0,9.5-9.1,17.8-21.1,17.9
	c-171.3,0-160.6,0-161.6,0c-9-0.5-14.4-9.5-12.8-14.6c9.2-28.9,22-34.6,31.8-45.3c9.9-8.9,21.4-15.8,34-20.6
	c3.9-1.5,5.8-5.8,4.3-9.7c-1.5-3.9-5.8-5.8-9.7-4.3c-14.5,5.5-27.5,13.5-38.9,23.8c-0.2,0.2-0.4,0.4-0.6,0.6c-0.8,0.9-2,2.1-3.5,3.4
	c10.1-22.7,22-41.5,36.1-57.1h160.5c12.6,54.6,12.5,58.6,19.8,69.7c2.3,3.5,6.9,4.4,10.4,2.1c3.5-2.3,4.4-6.9,2.1-10.4
	c-5.5-8.3-4.7-8.7-18.9-69.8v-18.8c0-13.8-11.3-25.1-25.1-25.1H102.3c-21.9,0-40.8,14.9-46,36.1c-0.6,2.5-0.5,5.1,0.4,7.4
	C18,305.3,0,371.5,0,382.7c0,14.7,13.1,26.7,29.1,26.7h15.5c3,44.9,40.5,80.5,86.1,80.5c45.7,0,83.1-35.6,86.2-80.6
	c130.3,0,117.7,0,122.4,0c3.1,43.5,39,80.5,86.3,80.5C497,489.9,537.2,407.8,494.5,351.4L494.5,351.4z M402.9,116.1h11v21.4h-11
	V116.1z M333.4,144.5c-12.7-5.5-15.6-21.9-6-31.5c6.6-6.6,13.4-5.7,21.5-5.7h39v38.7C337.1,146.1,338.4,146.7,333.4,144.5
	L333.4,144.5z M102.3,233.1h115.5c5.6,0,10.1,4.5,10.1,10.1v12.1H71.5C75.9,242.1,88.2,233.1,102.3,233.1z M161.8,409.3
	c-2.7,14.6-15.6,25.8-31,25.8c-15.4,0-28.3-11.1-31-25.8H161.8z M130.8,474.9c-37.4,0-68.1-28.9-71.1-65.6h24.9
	c2.9,22.9,22.5,40.8,46.2,40.8c23.7,0,43.3-17.8,46.2-40.8c21,0,4.5,0,24.9,0C198.9,446,168.2,474.9,130.8,474.9L130.8,474.9z
	 M437.3,319.1c3.2,0.4,4.9,4,3.5,6.9l-26.1,51.5c-5.3,10.4-15.8,16.9-27.5,16.9c-40.8,0-43.6,0-46.4,0
	C345.2,346.1,389.7,312.6,437.3,319.1z M433.8,373c13.6,3.6,23.4,16,23.4,30.5c0,17.4-14.2,31.6-31.6,31.6
	c-15.6,0-28.6-11.4-31.1-26.3c14.4-2.3,26.9-11.2,33.6-24.5L433.8,373z M425.6,474.9c-38.8,0-68.1-30.1-71.2-65.5h25
	c2.9,22.9,22.5,40.8,46.2,40.8c25.7,0,46.6-20.9,46.6-46.6c0-20.4-13-37.8-31.5-44.1l11.3-22.2c26.8,10.7,45,37.1,45,66.3
	C497,442.9,464.9,474.9,425.6,474.9L425.6,474.9z"/>
</svg>
