<?xml version="1.0" encoding="utf-8"?>
<!-- Generator: Adobe Illustrator 17.1.0, SVG Export Plug-In . SVG Version: 6.00 Build 0)  -->
<!DOCTYPE svg PUBLIC "-//W3C//DTD SVG 1.1//EN" "http://www.w3.org/Graphics/SVG/1.1/DTD/svg11.dtd">
<svg version="1.1" id="Capa_1" xmlns="http://www.w3.org/2000/svg" xmlns:xlink="http://www.w3.org/1999/xlink" x="0px" y="0px"
	 viewBox="0 0 310.4 310.4" enable-background="new 0 0 310.4 310.4" xml:space="preserve">
<g>
	<g>
		<path fill="#3D5976" d="M180.7,214.9c0,0,2.7-1.6,4.9,0.7c12.2,12.2,48.6,48.6,48.6,48.6c9.7,9.7,23.3,12,31.9,3.4l1.5-1.5
			c8.6-8.6,6.3-22.2-3.4-31.9c0,0-36.6-36.6-48.7-48.7c-2.1-2.1-0.6-4.8-0.6-4.8c22-36.7,17.2-83.7-14.4-115.3
			c-37.2-37.2-97.8-37.2-135.1,0c-37.2,37.2-37.2,97.8,0,135.1C97,232.1,144,236.9,180.7,214.9z M83.1,182.9
			c-27.5-27.5-27.5-72.3,0-99.8c27.5-27.5,72.3-27.5,99.8,0c27.5,27.5,27.5,72.3,0,99.8C155.4,210.4,110.6,210.4,83.1,182.9z"/>
		<g>
			<path fill="#3D5976" d="M167.7,121.3c-9.1-21.5-34-31.6-55.5-22.5c-5,2.1-10.8-0.2-12.9-5.2c-2.1-5,0.2-10.8,5.2-12.9
				c31.5-13.3,68,1.5,81.3,33c2.1,5-0.2,10.8-5.2,12.9c-1.3,0.5-2.6,0.8-3.8,0.8C173,127.3,169.3,125.1,167.7,121.3z"/>
		</g>
	</g>
</g>
</svg>
