<?xml version="1.0" encoding="utf-8"?>
<!-- Generator: Adobe Illustrator 17.1.0, SVG Export Plug-In . SVG Version: 6.00 Build 0)  -->
<!DOCTYPE svg PUBLIC "-//W3C//DTD SVG 1.1//EN" "http://www.w3.org/Graphics/SVG/1.1/DTD/svg11.dtd">
<svg version="1.1" id="Capa_1" xmlns="http://www.w3.org/2000/svg" xmlns:xlink="http://www.w3.org/1999/xlink" x="0px" y="0px"
	 viewBox="0 0 841.9 595.3" enable-background="new 0 0 841.9 595.3" xml:space="preserve">
<g>
	<path fill="#D1573F" stroke="#D1573F" stroke-width="6" stroke-miterlimit="10" d="M420.9,0C256.8,0,123.3,133.5,123.3,297.6
		s133.5,297.6,297.6,297.6s297.6-133.5,297.6-297.6S585.1,0,420.9,0z M420.9,577.4c-154.2,0-279.7-125.5-279.7-279.7
		S266.7,17.9,420.9,17.9c154.2,0,279.7,125.5,279.7,279.7S575.2,577.4,420.9,577.4z"/>
	<path fill="#D1573F" stroke="#D1573F" stroke-width="6" stroke-miterlimit="10" d="M420.9,167.2c-71.9,0-130.4,58.5-130.4,130.4
		c0,71.9,58.5,130.4,130.4,130.4c71.9,0,130.4-58.5,130.4-130.4C551.4,225.7,492.9,167.2,420.9,167.2z M420.9,410.1
		c-62,0-112.5-50.5-112.5-112.5s50.5-112.5,112.5-112.5s112.5,50.5,112.5,112.5S483,410.1,420.9,410.1z"/>
	<path fill="#D1573F" stroke="#D1573F" stroke-width="6" stroke-miterlimit="10" d="M216,251c4.9,0,9-4,9-9s-4-9-9-9
		c-25.8,0-46.8,21-46.8,46.8v54.3c0,25.8,21,46.8,46.8,46.8c4.9,0,9-4,9-9s-4-9-9-9c-15.9,0-28.9-13-28.9-28.9v-54.3
		C187.1,264,200.1,251,216,251z"/>
	<path fill="#D1573F" stroke="#D1573F" stroke-width="6" stroke-miterlimit="10" d="M625.9,233.1c-4.9,0-9,4-9,9s4,9,9,9
		c15.9,0,28.9,13,28.9,28.9v54.3c0,15.9-13,28.9-28.9,28.9c-4.9,0-9,4-9,9s4,9,9,9c25.8,0,46.8-21,46.8-46.8v-54.3
		C672.7,254.1,651.7,233.1,625.9,233.1z"/>
</g>
</svg>
