<?xml version="1.0" encoding="utf-8"?>
<!-- Generator: Adobe Illustrator 17.1.0, SVG Export Plug-In . SVG Version: 6.00 Build 0)  -->
<!DOCTYPE svg PUBLIC "-//W3C//DTD SVG 1.1//EN" "http://www.w3.org/Graphics/SVG/1.1/DTD/svg11.dtd">
<svg version="1.1" id="Layer_1" xmlns="http://www.w3.org/2000/svg" xmlns:xlink="http://www.w3.org/1999/xlink" x="0px" y="0px"
	 viewBox="0 0 841.9 595.3" enable-background="new 0 0 841.9 595.3" xml:space="preserve">
<g>
	<g>
		<path fill="#FFFFFF" d="M692.1,390.3c-12.9-15.5-27.6-29.4-41.7-42.8c-5-4.7-10.1-9.6-15.1-14.4c0,0,0,0,0,0
			c-6.7-6.5-9.9-11.1-10.3-14.5c-0.3-3.3,2-8.3,7.2-15.7c7.9-11,16.3-22.1,24.4-32.8c7.2-9.5,14.7-19.3,21.8-29.2l1.6-2.2
			c13.9-19.3,28.4-39.3,36.1-63.6c2.2-7,4.5-17.3-1-26.4c-5.5-9.1-15.8-11.7-23-13c-3.5-0.6-6.9-0.7-10-0.7l-90.5-0.1
			c-15.6-0.3-26.5,7.2-32.4,22c-4.7,11.9-10.3,25.7-16.8,38.7c-12.4,25.2-28.1,54.3-50.9,78.5l-1,1.1c-1.6,1.7-4.1,4.4-5.4,5
			c-2.5-1.6-5.3-10.4-5.2-15.1c0-0.1,0-0.2,0-0.3l-0.1-104.5c0-0.5,0-1.1-0.1-1.6c-2-14.9-6-29.9-29.6-34.5
			c-0.8-0.1-1.5-0.2-2.3-0.2h-94.1c-17.7,0-27.1,8.1-34.6,16.9c-2.2,2.6-7.9,9.4-5,17.7c3,8.4,11.8,10.1,14.8,10.6
			c10.3,1.9,15.6,7.7,17.2,18.8c3.2,21.5,3.6,44.6,1.3,72.4c-0.7,7.5-1.9,13.2-3.9,17.9c-0.6,1.3-1,2.1-1.4,2.6
			c-0.5-0.2-1.4-0.6-2.6-1.4c-7.2-4.9-12.6-12.6-17.9-20c-21-29.6-38.6-62.3-53.9-100c-6.3-15.4-18.2-24.1-33.4-24.3
			c-29-0.5-55.8-0.5-81.9,0c-12.3,0.2-21,4.1-25.7,11.5c-4.7,7.5-4.6,17,0.5,28.3c36.3,80.7,69.2,139.3,106.8,190.2
			c26.5,35.8,53.1,60.7,83.8,78.3c32.3,18.5,68.7,27.5,110.9,27.5c4.8,0,9.7-0.1,14.6-0.4c26.1-1.2,36.7-11.6,37.8-36.9
			c0.6-13.4,2.1-24.3,7.3-33.7c1.4-2.6,3.1-4.4,4.4-4.7c1.4-0.3,3.8,0.5,6.5,2.3c4.9,3.2,9.2,7.6,12.7,11.4
			c3.5,3.9,7.1,7.9,10.6,11.8c7.4,8.3,15,16.8,23,24.9c18.1,18.4,38.9,26.9,61.9,25.1l82.8,0c0,0,0,0,0,0c0.3,0,0.5,0,0.8,0
			c9.5-0.6,17.8-5.9,22.7-14.5c5.8-10.3,5.7-23.4-0.2-35C707.4,409.3,699.3,398.9,692.1,390.3z M693.2,444.7c-1.1,2-2.5,2.4-3.3,2.5
			l-82.8,0c0,0,0,0,0,0c-0.3,0-0.7,0-1,0c-16.3,1.4-30.2-4.4-43.6-18c-7.6-7.7-15-16.1-22.2-24.1c-3.5-3.9-7.1-8-10.8-12
			c-4.5-4.9-10.1-10.6-17.3-15.3c-10.7-7-19.6-6.8-25.2-5.4c-5.5,1.4-13.4,5.4-19.4,16.3c-7.8,14.2-9.5,29.5-10.2,44
			c-0.4,8.9-1.9,11.2-2.5,11.8c-0.8,0.8-3.6,2.1-12.7,2.6c-43.9,2.1-80.8-5.8-112.7-24.1c-27.8-15.9-52.1-38.7-76.5-71.8
			c-36.5-49.5-68.7-106.8-104.2-185.9c-1.3-2.9-1.7-4.7-1.8-5.6c0.9-0.3,2.7-0.7,5.8-0.7c25.9-0.5,52.4-0.5,81.1,0
			c3.9,0.1,8.4,1.2,11.8,9.5c16,39.4,34.5,73.6,56.6,104.8c5.9,8.3,13.1,18.5,23.8,25.9c9.8,6.7,17.8,6.4,22.7,4.9
			c5-1.5,11.8-5.5,16.5-16.4c3-7.1,4.8-15,5.7-25.1c2.6-29.8,2.1-54.6-1.4-78c-2.5-16.8-11.1-28.9-24.8-35c2.4-1.3,5.1-1.8,8.9-1.8
			h92.9c5.2,1.2,6.3,2.5,6.6,3c1.5,2,2.4,6.7,2.9,10.4l0.1,103.6c-0.2,9.9,4.6,31.9,21,38c0.1,0,0.3,0.1,0.4,0.1
			c15,4.9,24.8-5.7,30.2-11.3l0.9-1c25-26.5,41.8-57.5,55-84.3c6.9-13.8,12.7-28.1,17.6-40.5c2.5-6.2,4.7-7.2,10-7.1
			c0.1,0,0.1,0,0.2,0l90.6,0.1c2.1,0,4.3,0,6,0.3c4.3,0.7,6.1,1.6,6.7,2c0.1,0.7,0,2.7-1.3,6.8c-6.6,20.7-19.3,38.3-32.7,56.9
			l-1.6,2.2c-7,9.7-14.4,19.4-21.5,28.8c-8.2,10.8-16.7,22-24.8,33.3c-17.2,24-15.7,40,5.8,60.9c5.1,5,10.3,9.9,15.3,14.7
			c14.3,13.5,27.8,26.3,39.8,40.7c6.3,7.6,13.4,16.7,18.7,26.8C695.3,437.5,694.6,442.2,693.2,444.7z"/>
	</g>
</g>
</svg>
